<svg version="1" xmlns="http://www.w3.org/2000/svg" width="2120" height="2120" viewBox="0 0 1590.000000 1590.000000"><path d="M749.5 58.7c-2.2.1-10.5.7-18.5 1.3-19.6 1.4-43.4 4.4-67.5 8.5C500.6 96 349 179.2 237.1 302.5 156.6 391.1 100.6 492.8 68.6 608c-23.7 85.6-31.9 182.5-23 272.5 20.7 209.9 128.3 400.3 298 527.1C493.5 1519.7 680.1 1571 868 1551.9c223.4-22.6 424.4-144.4 548.6-332.4 72.5-109.9 113.4-231.8 122.4-365 1.3-19.4 1.3-76.8 0-96-2.2-31.8-6.8-67.8-12.6-97-35.4-180.7-137.4-342.9-285.5-454.2C1124.1 119.5 988.1 69.4 839 59c-13-.9-79.4-1.1-89.5-.3zM818.1 161c92.5 4.7 175.3 26.2 255.9 66.5 101.6 50.8 185.9 125.5 248.5 220.5 90.5 137.3 124.2 302.8 94.9 465.5-17.4 96.4-57.6 188.4-116.7 267.4-101.7 136-252.4 225.7-420.2 250-28.5 4.1-43.7 5.2-80 5.8-36.5.6-56.5-.2-83.5-3.3-186.5-20.9-355.2-124-459.8-281.1-54.7-82.1-89-174.2-101.6-272.3-6.4-49.7-6.6-106.5-.5-158 18.9-160.3 99.6-308.6 224.4-413C483 222.6 611 170.9 743.5 162c31.7-2.1 47.9-2.3 74.6-1z"/><path d="M458 294.5c-1.9 1.9-4.1 3.5-5 3.5-.8 0-2.9 1.2-4.5 2.7-1.6 1.6-4.5 3.9-6.5 5.2-1.9 1.3-3.9 3-4.3 3.7-.4.8-2.2 2.1-3.9 3-3.1 1.6-12.4 9.9-18.7 16.6-1.9 2.1-4 3.8-4.8 3.8-.7 0-1.3.4-1.3 1 0 .5-1.7 1.1-3.7 1.1-2.1.1-3 .3-2 .6.9.2 1.7.8 1.7 1.1-.1.9-3.7 5.2-4.4 5.2-.3 0-1.8 1.3-3.3 2.8-1.6 1.6-3.6 3.1-4.5 3.5-1 .3-1.8 1.1-1.8 1.7 0 .6-1.3 2.3-3 3.7-1.6 1.3-3 3.1-3 3.8 0 .7-1.6 2.3-3.5 3.6-1.9 1.3-3.5 2.9-3.5 3.5 0 .6-1.6 2.2-3.5 3.5-1.9 1.3-3.5 2.9-3.5 3.6 0 .6-.9 1.4-1.9 1.8-1 .3-2.1 1.3-2.5 2.3-.3.9-2.5 4-4.8 6.8-2.4 2.9-6.2 7.6-8.5 10.5-2.3 3-5.5 6.9-7 8.8-1.5 1.8-3.3 4.2-3.8 5.3-.6 1-3.1 4-5.6 6.6-5.4 5.7-10.3 12-11.2 14.5-.4 1.1-1.6 2.1-2.7 2.4-1.1.3-2 1.4-2 2.4s-.5 2.1-1.1 2.5c-.6.3-1.6 1.8-2.3 3.3-.6 1.4-4.7 8-9.1 14.6-4.3 6.6-8.9 13.8-10.1 16.1-1.2 2.2-3.5 6.1-5 8.5-1.6 2.4-3.4 5.6-4.1 7.1-.7 1.6-1.7 2.8-2.3 2.8-.5 0-1 .6-1 1.4 0 1.2-2.8 7.2-5.9 12.6-1.6 2.7-11 22.5-11.9 25-.6 1.4-4.1 9.7-8 18.5-3.9 8.8-7.6 18.7-8.3 22-.7 3.3-1.8 6.7-2.6 7.6-.7.8-1.3 2.1-1.3 2.7 0 .7-1.1 3-2.5 5.2s-2.5 4.8-2.5 5.7c0 1-.9 3.8-2 6.2-1.1 2.4-2 5.6-2 7.2 0 1.5-.4 3-.9 3.4-.5.3-1.5 3.1-2.1 6.3-.7 3.1-1.8 6.8-2.5 8.2-.7 1.4-1.5 4.5-1.9 7-.4 2.4-1.5 5.8-2.5 7.5-2.2 3.6-7.5 25.4-13.1 54l-4.1 21 8.6 12.5c4.7 6.9 11.8 16.1 15.8 20.5 13.5 14.9 39.2 40 43 42 2 1.1 3.7 2.5 3.7 3.1 0 .6 3.5 3.6 7.8 6.7 14 10.2 16.5 12.2 18.8 14.3 1.2 1.2 4.3 3.1 6.8 4.4 2.5 1.2 4.9 2.8 5.4 3.5.8 1.4 8.1 5.5 9.8 5.5.6 0 1.9.9 2.8 1.9 1 1.1 3.8 2.8 6.2 3.8 2.4 1 4.4 2.4 4.4 3 0 .7.7 1.3 1.6 1.3 1.7 0 12.2 4.7 14.4 6.5.8.7 5 2.5 9.3 4 4.5 1.6 7.7 3.3 7.7 4.1 0 .9 1.2 1.4 3.3 1.4 1.8 0 4.2.7 5.3 1.5 1 .8 2.9 1.5 4 1.5 1.2 0 3.3.9 4.7 2 1.4 1.1 3 2 3.6 2 .6 0 3.7.9 6.8 2 3.2 1.1 6.6 2 7.7 2 1.1 0 3.8.8 6 1.9 5.1 2.3 14.5 4.8 21.1 5.7 2.8.3 6.5 1.2 8.4 2 4.5 1.9 19.8 5 28.9 5.9 4.4.4 7.9 1.3 8.8 2.3 1.2 1.1 4.9 1.8 13.7 2.4 6.7.4 15.4 1.2 19.2 1.8 29.3 4 175.2 4 201.5 0 10.2-1.5 99.5-1.2 130.8.5 27.1 1.5 31.7 2 33.8 3.6.6.5 4 1.2 7.5 1.5 3.5.3 8.7 1.2 11.4 1.9 2.8.8 7.2 1.6 10 2 2.7.4 6.3 1.4 7.8 2.2 4.7 2.4 14.7 5.3 18.4 5.3 2.6 0 3.6.5 4 2 .4 1.3 1.4 2 3.1 2 2.7 0 13.2 4.6 13.2 5.8 0 .4 3 1.8 6.8 3.1 5.9 2.1 13.3 6.8 18.3 11.6.9.8 1.9 1.5 2.3 1.5 1.7 0 6.6 4.6 6.6 6.2 0 1.1.7 1.8 2 1.8 1 0 2.4.9 3 2 .6 1.1 1.7 2 2.6 2 .8 0 1.7.7 2 1.5.4.8 1.2 1.5 1.9 1.5 2 0 12.5 11.4 12.5 13.6 0 .7 1.4 2.1 3 3.1 1.7.9 3 2.1 3 2.6s1.7 2.9 3.9 5.5c2.1 2.6 4.9 6.9 6.2 9.5 4.1 8.2 5 9.7 5.8 9.7.4 0 1.3 1.8 2 4 .9 3.1.9 4.5 0 6.2-1.2 2.4-16.1 28.8-33.6 59.6-5.7 10-10.1 18.7-9.8 19.2.7 1.1-3.1 7.8-6.1 10.7-1.2 1.2-4.8 6.8-7.9 12.3-3.1 5.5-6 10-6.6 10-.5 0-.9.9-.9 2.1 0 2.7-7.8 17.6-9.6 18.3-.8.3-1.4 1.4-1.4 2.4s-.9 2.7-2 3.7-2 2.6-2 3.5c0 1-.7 2.3-1.5 3-.8.7-1.5 2-1.5 3 0 .9-.8 2.4-1.7 3.3-1 .9-2.7 3.3-3.8 5.4-1 2.1-2.4 4.5-3.1 5.3-1.3 1.8-5.9 9.9-8.6 15.2-1 2.1-2.3 3.8-2.8 3.8-.6 0-1 .7-1 1.5s-1.6 3.5-3.5 6.1c-1.9 2.5-3.5 5-3.5 5.5 0 1.3-12.2 22.3-13.2 22.7-.5.2-.8 1.2-.8 2.1 0 1-.9 2.6-1.9 3.5-1.1 1-2.2 2.8-2.5 4.2-.4 1.3-1.1 2.4-1.6 2.4-.6 0-1.5 1-2 2.2-.6 1.3-1.4 3-1.9 3.8-1.7 2.6-10.6 18.4-11.9 21-.7 1.4-2.3 4.3-3.7 6.5-1.3 2.2-2.8 4.9-3.3 6-.6 1.2-1.7 2.7-2.6 3.4-.9.7-1.6 1.8-1.6 2.3 0 .5-.9 2.1-2 3.5s-2 3.4-2 4.4c0 .9-.4 1.9-.8 2.1-.5.1-2.6 3.4-4.7 7.2-2.2 3.9-4.7 7.8-5.6 8.7-.9.9-2 3.1-2.4 4.8-.4 1.7-1.1 3.1-1.6 3.1s-.9.6-.9 1.3c0 .7-1.2 2.9-2.6 4.8-1.4 1.9-3.4 5.3-4.5 7.6-1 2.3-2.2 4.3-2.6 4.5-.8.3-2.4 2.9-6.9 11.3-1.4 2.7-5.1 8.7-8 13.1-3 4.5-5.4 8.6-5.4 9.1 0 .6-.7 1.6-1.5 2.3-.8.7-1.5 2.3-1.5 3.6 0 1.3-.6 2.7-1.3 3.1-.8.4-2 2-2.8 3.5-4 7.6-7.5 12.8-8.6 12.8-.7 0-1.3 1-1.3 2.2 0 1.3-1.1 4.1-2.5 6.3s-3.2 5.7-4.1 7.8c-1 2-2 3.7-2.5 3.7-.7 0-3.9 6.3-5.3 10.3-.3 1 .1 3.3.8 5.2l1.4 3.4 9.4.5c5.1.2 14 .9 19.8 1.5 11.3 1.2 35.5 0 37.4-1.9.6-.6 1.6-1 2.4-1 1.3 0 4.3-3.2 6.7-7 4.8-7.9 8-12.2 9.5-13 1.2-.6 1.6-1.7 1.3-3.4-.6-2.9 7.1-15.6 9.3-15.6.9 0 1.4-1.1 1.4-2.9 0-1.6.7-3.4 1.5-4.1.8-.7 1.5-1.9 1.5-2.8 0-.8.7-2.4 1.7-3.4 1.8-2.1 2.5-3.1 7.1-12 1.9-3.4 4-7 4.8-7.9.8-.8 1.4-2.5 1.4-3.7 0-1.2.9-2.6 1.9-3.1 1-.6 2.9-3.1 4.1-5.6 1.2-2.5 2.6-4.5 3.1-4.5s.9-.7.9-1.6c0-.9 1.6-4.3 3.5-7.5 1.9-3.3 3.5-6.4 3.5-6.8 0-.4 1.1-1.8 2.4-3 1.3-1.2 3.2-4.1 4.2-6.4 1-2.3 3.7-7.2 6.1-10.9 2.4-3.7 4.3-7 4.3-7.4 0-.4 1.1-2.2 2.5-4 1.4-1.8 2.5-3.6 2.5-4.1 0-.5 1.6-3.2 3.5-6.2 1.9-2.9 3.5-5.6 3.5-6 0-.5.9-1.8 2-3.1s2-2.9 2-3.6c0-.7 1.6-3.6 3.5-6.5 1.9-3 3.5-5.9 3.5-6.5 0-.6.9-2.2 2-3.5 3.2-3.9 3.5-4.3 4.7-7.2.7-1.5 1.7-2.7 2.3-2.7.5 0 1-.8 1-1.8 0-1.1.9-2.7 2-3.7s2-2.6 2-3.5c0-.9.9-2.5 2-3.5s2-2.4 2-3.1c0-.7 1.4-3.3 3-5.8 1.7-2.5 3.5-5.9 4.1-7.5.6-1.7 1.5-3.1 1.9-3.1.5 0 2.1-2.5 3.6-5.5 1.6-3 3.2-5.5 3.6-5.5.4 0 .8-.9.8-2s.9-2.5 2-3.2c1.1-.7 2-2 2-2.9 0-.9.9-2.4 2-3.4s2-2.9 2-4.2c0-1.2.4-2.3.9-2.3s1.3-1 1.7-2.3c.4-1.2 1.7-3.6 2.9-5.2 1.2-1.7 3.9-6.1 6.1-9.9 2.1-3.7 4.4-7.7 5.1-8.9.6-1.1 1.9-2.4 2.7-2.9.9-.5 1.6-2 1.6-3.4 0-1.3.7-2.7 1.5-3 .8-.4 1.5-1.3 1.5-2.1 0-1.4 4.7-10.2 6-11.3.4-.3 2.6-4 5.1-8.4 2.4-4.3 5-8.1 5.7-8.3.6-.3 1.2-1.4 1.2-2.4 0-1.1.9-2.7 2-3.6 1.1-1 2-2.4 2-3.1 0-.8.9-2.5 2-3.9s2-3.1 2-3.8c0-.7.6-1.8 1.4-2.4.8-.6 3.1-4.4 5.1-8.4 2-4 4.3-7.9 5-8.7.7-.8 2.5-3.9 4-6.8 1.4-2.8 3-5.2 3.5-5.2.4 0 1.3-1.2 1.9-2.8 1.3-3 4.3-8.4 5.2-9.2.3-.3 1.9-3.2 3.5-6.5s4.1-7.6 5.5-9.5c1.5-1.9 2.9-4.5 3.3-5.8.4-1.2 1.2-2.2 1.7-2.2s.9-.7.9-1.5.9-2.4 2-3.5c1.2-1.2 2.5-3.1 3-4.3.6-1.2 1.4-3 2-4 .5-.9 1.5-2.5 2-3.5.6-.9 1.6-2.8 2.2-4.2.7-1.4 2.7-4.6 4.5-7.1 1.8-2.6 3.3-5.1 3.3-5.8 0-.6.7-1.1 1.5-1.1s1.5-.8 1.5-1.8.7-2.7 1.5-3.8c.8-1 1.5-2.7 1.5-3.7s1-2.1 2.3-2.6c1.5-.6 2.8-2.6 4.1-6.5 1.1-3.2 2.3-5.9 2.8-6.2 1.2-.8 7.1-10.3 10.8-17.4 1.8-3.6 3.7-6.7 4.2-6.8.4-.2.8-1 .8-1.8s1.1-2.4 2.5-3.6c1.4-1.2 2.5-2.9 2.5-3.9 0-.9.7-2.2 1.5-2.9.8-.7 1.5-1.9 1.5-2.7 0-.8 1.6-3.5 3.5-6s3.5-5.4 3.5-6.4.4-2 .9-2.4c.6-.3 2.5-3.1 4.3-6.1 1.8-3.1 4.3-7.3 5.5-9.3 1.2-2 2.7-4.8 3.3-6.3.6-1.4 1.8-2.9 2.6-3.2.8-.3 1.4-1.4 1.4-2.5s.6-2.4 1.4-2.8c.8-.4 2.6-3.4 4-6.6 1.3-3.1 2.9-5.7 3.4-5.7.6 0 1.3-1.1 1.6-2.5.4-1.4 1-2.5 1.5-2.5s2.4-2.8 4.1-6.3c5.3-10.5 6.3-12.2 7.7-13 .7-.4 1.3-1.6 1.3-2.5 0-1 .4-2.2.9-2.7 1.6-1.7 11.9-18.4 12.6-20.4.3-1.1 1.2-2.5 2-3.1.8-.7 1.5-2 1.5-3s1.1-2.5 2.5-3.4c1.4-.9 2.5-2.5 2.5-3.5s.7-2.4 1.5-3.1c.8-.7 1.5-2.1 1.5-3.1 0-2 4.8-9.5 7.9-12.3 1.2-1.1 2.1-2.6 2.2-3.5 0-.9 1.3-3.9 2.9-6.6 1.6-2.8 3.6-6.5 4.4-8.3.8-1.7 2-3.2 2.5-3.2.6 0 1.1-.8 1.1-1.8 0-1.1.9-2.7 2-3.7s2-2.6 2-3.6.5-2.1 1.1-2.5c.6-.3 1.8-2.1 2.6-3.8 2.4-5.2 11.2-18.8 12.6-19.4.4-.2.7-1 .7-1.9 0-1.9 5-10.6 6.7-11.6.7-.4 1.3-1.6 1.3-2.6s.7-2.4 1.5-3.1c.8-.7 2.7-3.7 4.2-6.8 1.6-3.1 3.2-6.1 3.6-6.7.4-.5 3.6-5.9 7-11.8 3.4-6 7.2-12.5 8.4-14.5 1.2-2.1 2.6-4.7 3.2-5.8.5-1.2 1.7-2.4 2.5-2.7.9-.4 1.6-1.8 1.6-3.1 0-1.4.6-2.9 1.4-3.3.7-.4 1.9-2.6 2.6-4.7 1.4-4.3 15.1-27.8 18.3-31.3 2.3-2.6 2.9-3.6 7.9-13.5 4.2-8.4 5.8-18.7 3.3-20.8-.7-.6-1.7-2.6-2-4.3-.3-1.8-1-4.1-1.4-5.2-1.4-3.6-3.2-8.9-4.2-12.5-1.1-3.8-1.8-5.4-7.3-17.3-2-4.2-3.6-8.4-3.6-9.2 0-.7-.4-1.6-.9-1.9-.4-.3-1.1-1.8-1.4-3.4-.6-3.1-5.6-11.2-6.9-11.2-.4 0-.8-.8-.8-1.7 0-3.1-3.3-10.7-5.7-13.4-1.2-1.4-2.3-3-2.3-3.7 0-.7-.9-2.1-2.1-3.3-1.1-1.1-2.2-3-2.4-4.1-.3-1.1-1.1-2.8-2-3.8-.8-.9-1.5-2.1-1.5-2.6s-1.2-2.3-2.7-4c-1.6-1.6-3.4-4.1-4-5.4-2-3.9-3.6-6.2-6.5-9.1-1.6-1.6-2.8-3.2-2.8-3.7 0-.4-3.1-4.2-7-8.4-3.8-4.2-7-8.1-7-8.7 0-.6-.4-1.1-1-1.1-.5 0-4.1-3-7.9-6.8-10.8-10.5-15.4-14.4-18.8-15.8-1.7-.8-3.3-1.7-3.5-2.1-.4-1-5.8-4.8-8-5.6-1-.3-1.8-1.2-1.8-1.9 0-1.2-8.7-5.8-11-5.8-.5 0-1-.4-1-1 0-1.2-9.3-6-11.6-6-1.1 0-1.5-.6-1.1-2 .5-1.8 0-2-3.8-2-2.4 0-4.7-.5-5-1-.3-.6-2.6-1.5-5-2.1-2.5-.6-5-1.7-5.6-2.5-.6-.8-1.9-1.4-2.8-1.4-1.9 0-13.3-3.7-17.6-5.7-3.6-1.6-13.6-3.9-25.1-5.8-4.4-.7-8.9-1.7-10-2.3-1.1-.5-8.2-1.5-15.9-2.1-7.7-.6-19.4-1.6-26-2.2-16.6-1.6-66.9-.3-82 2.1-3.3.5-13 1.4-21.5 2-23.8 1.6-35.2 2.8-39 4-1.9.6-8.2 1.5-14 2-17 1.5-28.3 2.9-31.6 4-1.7.6-7.3 1.4-12.5 1.9-20 2-29.4 3.3-30.6 4.2-.6.6-6.2 1.4-12.5 1.9-15.7 1.3-28.7 2.9-32.3 4.1-3 1-18.9 2.3-43 3.5-7.1.4-13.6 1.1-14.3 1.7-.7.5-7.4 1.5-14.9 2-15.4 1.2-90.3-.6-98.3-2.4-10.8-2.3-25.2-5.1-33.5-6.4-4.9-.7-11.5-2.4-14.5-3.6-6.1-2.4-14.7-4.9-16.8-4.9-.8 0-2.5-.9-3.9-2s-3.5-2-4.7-2c-1.2 0-3.1-.7-4.2-1.5-1-.8-2.8-1.5-3.9-1.5-2.7 0-5.4-2-3.7-2.7 2.6-1 1.1-2.5-2.1-2-3.9.6-14.7-3.6-20.2-7.7-1.9-1.4-3.8-2.6-4.3-2.6-.6 0-3.4-1.6-6.4-3.5-2.9-1.9-6.1-3.8-7-4.1-1-.3-1.8-1.2-1.8-2s-.7-1.4-1.5-1.4c-2.1 0-8.6-4.7-16.1-11.7-1.3-1.2-4.4-3.6-6.9-5.3-3.9-2.7-25.5-23.6-25.5-24.7 0-.4-6.9-9.7-10.4-14-5.1-6.5-6.8-6.7-11.6-1.8z"/><path d="M206.4 759.2c1.6 31.3 2.9 46.8 5.7 65.3.6 3.8 1.4 9.9 1.9 13.5.4 3.6 1.2 8.5 1.8 11 .6 2.5 1.6 6.7 2.2 9.5.6 2.7 1.7 7.5 2.5 10.5.7 3 2 8.2 2.8 11.5.8 3.3 2 7.3 2.6 8.8.6 1.6 1.1 3.8 1.1 5.1 0 2.9 3.3 9.6 5.9 12 1.2 1.1 2.1 2.6 2.1 3.5 0 .9.7 2.5 1.5 3.5.8 1.1 1.5 2.6 1.5 3.3 0 .8.9 3.5 2.1 6.1 1.1 2.6 2.6 6 3.3 7.7 7.1 16.2 19.3 37.6 28.1 49 6.5 8.6 20.6 24.3 26 29 3.2 2.7 10.3 8.5 15.9 12.8 5.5 4.2 12.6 10.1 15.6 13 5.2 4.9 9.1 7.1 35.5 19.8 2.2 1 4.6 1.9 5.3 1.9.6 0 2.9.9 4.9 2 2.1 1.1 4.5 2 5.5 2 .9 0 2.9.6 4.5 1.4 1.5.8 6.1 2.4 10.1 3.5 3.9 1.2 10.2 3 14 4 3.7 1.1 8.9 2.3 11.5 2.6 2.6.4 6.2 1.2 8 1.9 1.8.8 6.3 1.6 10.1 2 3.8.4 7.7 1.1 8.7 1.7 1 .5 6.7 1.4 12.6 2 5.9.5 12.2 1.4 13.8 2 1.7.5 11.3 1.6 21.5 2.4 10.2.8 21 1.9 24 2.5 3 .5 15.6 1.4 28 2 44.6 2.1 59.1 3.1 78.6 5.1 23.5 2.4 89.4 13 98.9 16 6.1 1.9 6.6 2.2 5.2 3.7-.8.9-1.8 2.8-2.2 4.2-.4 1.4-2.6 5.8-4.9 9.9-4.4 7.8-13.8 25.8-25.6 48.6-4 7.7-8.9 17.1-11 21-9.5 17.9-14.8 28-21.3 40.5-3.8 7.4-8.7 16.6-10.8 20.5-2.1 3.8-4.3 8.1-4.9 9.5-.5 1.4-1.4 3.2-1.9 4-.9 1.4-3.5 6.4-16.8 32-3.3 6.3-9.1 17.3-12.8 24.5-17.5 33.3-20.5 39.8-20.5 44.7 0 3 .4 4.8 1.2 4.8.6 0 1.9.6 2.7 1.4 2.2 1.8 10.2 3.5 25.1 5.2 6.9.8 13.9 1.8 15.5 2.3 10.5 3.3 18.2 1.9 20.4-3.6 1.5-3.9 8.4-16 9.9-17.5.6-.6 1.2-1.8 1.2-2.5s1-3 2.3-5.1c1.3-2 5-8.7 8.3-14.7 3.2-6.1 6.3-11.7 6.9-12.7.5-.9 2.5-4.5 4.4-8 1.8-3.4 3.7-6.8 4.1-7.3.4-.6 2.2-3.7 3.9-7 1.8-3.3 3.6-6.7 4.1-7.5 3.8-6.4 11-19.3 11-19.9 0-.3 1.6-3 3.5-6 1.9-2.9 3.8-6.4 4.1-7.7.3-1.3 1-2.7 1.6-3 .5-.3 1.3-1.6 1.8-2.7.6-1.2 2.1-4 3.4-6.2 1.4-2.2 3.8-6.5 5.4-9.5 1.6-3 4-7.3 5.2-9.5 1.3-2.2 3-5.1 3.8-6.5.7-1.4 2.5-4.3 3.8-6.5 1.3-2.2 3.2-5.6 4.2-7.5 4.5-8.5 6.9-12.7 8.4-15 1.6-2.5 5.4-9.2 10.4-18.5 1.4-2.8 3.1-5.6 3.7-6.3.5-.7 2.2-3.7 3.7-6.7s3.2-6 3.7-6.7c.5-.7 2.1-3.3 3.4-5.8 4.5-8.5 10.4-18.5 11.1-18.8.5-.2.8-.9.8-1.6 0-.8.9-2.5 2-3.9s2-3.1 2-3.8c0-.7.6-2 1.4-2.8.8-.9 2.6-4.1 4.2-7.1 1.5-3 3.1-5.7 3.4-6 .6-.5 1.5-2 5.4-9.5.9-1.7 3.4-6.2 5.6-10 2.2-3.9 4.6-8.1 5.3-9.5.6-1.4 1.4-2.7 1.7-3 .3-.3 1.1-1.6 1.8-3s2.3-4.3 3.7-6.5c1.3-2.2 3-5.4 3.9-7 1.7-3.3 7.2-13.1 10.4-18.5 1.1-1.9 3.5-6.2 5.1-9.5 1.7-3.3 3.5-6.7 4.1-7.5 2.1-3.5 11.3-19.6 12.1-21.5.5-1.1 2.6-5 4.7-8.7 7.8-14 18.2-32.9 22.4-40.8 3.7-7 4.2-8.1 5.6-10.5 4.4-7.6 4.9-9.4 4.2-13.4-.4-2.2-1.3-4.8-2-5.6-1.8-2.2-9.9-7.5-11.4-7.5-.7 0-2.3-.9-3.6-2-1.3-1.1-3.3-2-4.5-2-1.3 0-2.8-.7-3.5-1.5-.7-.8-2.1-1.5-3.1-1.5-1.1 0-3.8-.8-6.2-1.9-6.5-2.8-17.6-5.9-24.1-6.6-3.3-.4-7.1-1.1-8.5-1.6-8.4-3.2-57.3-5.1-100.6-3.8-65.2 1.9-84.8 2.7-101 3.8-29.3 2.1-130.1-.3-142.3-3.3-3.1-.8-10.6-1.7-16.7-2.1-6-.4-12.7-1.3-15-2-2.2-.7-7.1-1.7-11-2.1-3.8-.3-8.1-1.1-9.5-1.6-1.4-.6-5.9-1.6-10-2.3-8.6-1.6-19.5-4.6-22.7-6.3-1.2-.7-3.4-1.2-5-1.2-1.5-.1-4.6-.8-6.8-1.6-2.2-.9-6-2-8.5-2.6-2.5-.6-4.7-1.4-5-1.7-.3-.4-2.7-1.3-5.5-2.1-2.7-.7-5.4-1.6-6-2-.5-.3-6.6-2.8-13.5-5.5s-13.2-5.5-14.1-6.2c-.8-.7-2.3-1.3-3.1-1.3-.9 0-2.1-.6-2.7-1.4-.7-.8-2.6-1.8-4.2-2.1-1.6-.4-2.9-1-2.9-1.5s-1.5-1.4-3.4-2c-1.9-.6-4-1.8-4.6-2.6-.7-.7-1.9-1.4-2.6-1.4-.8 0-3.7-1.6-6.4-3.5s-5.4-3.5-5.8-3.5c-.5 0-1.7-.9-2.7-2-1-1.1-2.5-2-3.4-2-.9 0-3.3-1.6-5.4-3.5-2.1-1.9-4.5-3.5-5.3-3.5-.8 0-2.2-.9-3.1-2-1-1.1-2.1-2-2.6-2-1.2 0-17.5-13-25.8-20.6-.9-.7-1.9-1.4-2.3-1.4-.8 0-21.7-20.8-29.6-29.6-2.5-2.7-9.2-10.5-14.9-17.2-5.6-6.7-10.7-12.2-11.3-12.2-.8 0-.9 4.3-.4 14.2zM613 907c-1.4.4-9.7.8-18.5.8-9.4 0-14.8-.4-13-.8 4.1-1 34.7-1 31.5 0z"/></svg>